/* XPM */ 
static const unsigned char * bitcoin32_xpm[] = {
"32 32 107 2",
"  	c None",
"! 	c white",
"# 	c #FAFAFA",
"$ 	c #EAEAEA",
"% 	c #EEEEEE",
"& 	c #CACACA",
"' 	c #D6D6D6",
"( 	c #B8B8B8",
") 	c #FEFEFE",
"* 	c #CDCDCD",
"+ 	c #DDDDDD",
", 	c #AAAAA9",
"- 	c #787878",
". 	c #C2C2C2",
"0 	c #AEAEAE",
"1 	c #A5A5A5",
"2 	c #838383",
"3 	c #A3A3A3",
"4 	c #C7C7C7",
"5 	c #AFAFAF",
"6 	c #939393",
"7 	c #777777",
"8 	c #7F7F7F",
"9 	c #9C9C9C",
": 	c #B0B0B0",
"; 	c #828282",
"< 	c #A0A0A0",
"= 	c #C8C8C8",
"> 	c #DCDCDC",
"? 	c #8A8A8A",
"@ 	c #A9A9A9",
"A 	c #CECECE",
"B 	c #D5D5D5",
"C 	c #D4D4D4",
"D 	c #959595",
"E 	c #E3E3E2",
"F 	c #E4E4E4",
"G 	c #E2E2E1",
"H 	c #D1D1D1",
"I 	c #A7A7A7",
"J 	c #8F8F8F",
"K 	c #D2D2D2",
"L 	c #D7D7D7",
"M 	c #D8D8D8",
"N 	c #C4C4C4",
"O 	c #ECECEC",
"P 	c #4C4C4C",
"Q 	c #3F3F3F",
"R 	c #717171",
"S 	c #ACACAB",
"T 	c #BFBFBF",
"U 	c #F3F3F3",
"V 	c #DBDBDB",
"W 	c #CCCCCC",
"X 	c #4F4F4F",
"Y 	c #5F5F5F",
"Z 	c #9A9A9A",
"[ 	c #BEBEBE",
"] 	c #F7F7F7",
"^ 	c #B5B5B5",
"_ 	c #767676",
"` 	c #3D3D3D",
"a 	c #C0C0C0",
"b 	c #676767",
"c 	c #F0F0F0",
"d 	c #B6B6B6",
"e 	c #DFDFDF",
"f 	c #929292",
"g 	c #F8F8F8",
"h 	c #E9E9E9",
"i 	c #C1C1C1",
"j 	c #FBFBFB",
"k 	c #D0D0D0",
"l 	c #FDFDFD",
"m 	c #C9C9C9",
"n 	c #F4F4F4",
"o 	c #D3D3D3",
"p 	c #C3C3C3",
"q 	c #9B9B9B",
"r 	c #A6A6A6",
"s 	c #A2A2A2",
"t 	c #8C8C8C",
"u 	c #CFCFCF",
"v 	c #949494",
"w 	c #B1B1B1",
"x 	c #6A6A6A",
"y 	c #F1F1F1",
"z 	c #484848",
"{ 	c #969696",
"| 	c #BABAB9",
"} 	c #F6F6F6",
"~ 	c #D8D8D7",
" !	c #6F6F6F",
"!!	c #DEDEDE",
"#!	c #888888",
"$!	c #999999",
"%!	c #B3B3B3",
"&!	c #979797",
"'!	c #BBBBBB",
"(!	c #747473",
")!	c #878787",
"*!	c #B2B2B2",
"+!	c #070707",
",!	c #111111",
"-!	c #AAAAAA",
".!	c #919191",
"0!	c #B4B4B3",
"! ! ! ! ! ! ! ! ! ! ! ! ! ! ! ! ! ! ! ! ! ! ! ! ! ! ! ! ! ! ! ! ",
"! ! ! ! ! ! ! ! ! ! ! ! ! ! ! ! ! ! ! ! ! ! ! ! ! ! ! ! ! ! ! ! ",
"! ! ! ! ! ! ! ! ! ! ! ! ! ! ! ! ! ! ! ! ! ! ! ! ! ! ! ! ! ! ! ! ",
"! ! ! ! ! ! ! ! ! ! ! ! ! ! # $ % ! ! ! ! ! ! ! ! ! ! ! ! ! ! ! ",
"! ! ! ! ! ! ! ! ! ! ! ! ! ! & ' ( ) ! ! ! ! ! ! ! ! ! ! ! ! ! ! ",
"! ! ! ! ! ! ! ! ! ! ! ! ! ! & ) * ) ) ) ) ) ) ) ) ! ! ! ! ! ! ! ",
"! ! ! ! ! ! ! + , - . 0 1 2 3 4 5 6 7 8 9 : ; < = ! ! ! ! ! ! ! ",
"! ! ! ! ! ! ! > & ? @ A B C = D > E F G H I J K L ! ! ! ! ! ! ! ",
"! ! ! ! ! ! ! ! ! ! M N O ) P Q R ) O S T U ! ! ! ! ! ! ! ! ! ! ",
"! ! ! ! ! ! ! ! ! ! ) V W L X Y X Z , [ ) ! ! ! ! ! ! ! ! ! ! ! ",
"! ! ! ! ! ! ! ! ! ! ! ! ] ^ _ ` a b c ! ! ! ! ! ! ! ! ! ! ! ! ! ",
"! ! ! ! ! ! ! ! ! ! ! ! ! ) & d e f ! ! ! ! ! ! ! ! ! ! ! ! ! ! ",
"! ! ! ! ! ! ! ! ! ! ! ! ! ! N g h d ! ! ! ! ! ! ! ! ! ! ! ! ! ! ",
"! ! ! ! ! ! ! ! ! ! ! ! ! ! i j k * ! ! ! ! ! ! ! ! ! ! ! ! ! ! ",
"! ! ! ! ! ! ! ! ! ! ! ! ! l m n i o ! ! ! ! ! ! ! ! ! ! ! ! ! ! ",
"! ! ! ! ! ! ! ! ! ! ! ! ! % p q r 3 ! ! ! ! ! ! ! ! ! ! ! ! ! ! ",
"! ! ! ! ! ! ! ! ! ! ! ! ! ) s I s t ! ! ! ! ! ! ! ! ! ! ! ! ! ! ",
"! ! ! ! ! ! ! ! ! ! ! ! ! ! i 2 : u ! ! ! ! ! ! ! ! ! ! ! ! ! ! ",
"! ! ! ! ! ! ! ! ! ! ! ! ! ! . v w k ! ! ! ! ! ! ! ! ! ! ! ! ! ! ",
"! ! ! ! ! ! ! ! ! ! ! ! ! ! ( x i y ! ! ! ! ! ! ! ! ! ! ! ! ! ! ",
"! ! ! ! ! ! ! ! ! ! ! ! ! ! L z { l ! ! ! ! ! ! ! ! ! ! ! ! ! ! ",
"! ! ! ! ! ! ! ! ! ! ! ! ! ! o - | } ! ! ! ! ! ! ! ! ! ! ! ! ! ! ",
"! ! ! ! ! ! ! ! ! ! ! ! ! ! ~  !6 ) ! ! ! ! ! ! ! ! ! ! ! ! ! ! ",
"! ! ! ! ! ! ! ! ! ! ! ! ! ! !!#!$!) ! ! ! ! ! ! ! ! ! ! ! ! ! ! ",
"! ! ! ! ! ! ! ! ! ! ! ! ! ! 4 %!&!!!! ! ! ! ! ! ! ! ! ! ! ! ! ! ",
"! ! ! ! ! ! ! ! ! ! ! ! ! ! '!(!)!*!! ! ! ! ! ! ! ! ! ! ! ! ! ! ",
"! ! ! ! ! ! ! ! ! ! ! ! ! ! c +!,!) ! ! ! ! ! ! ! ! ! ! ! ! ! ! ",
"! ! ! ! ! ! ! ! ! ! ! ! ! ! ) -!.!) ! ! ! ! ! ! ! ! ! ! ! ! ! ! ",
"! ! ! ! ! ! ! ! ! ! ! ! ! ! ) : 0!) ! ! ! ! ! ! ! ! ! ! ! ! ! ! ",
"! ! ! ! ! ! ! ! ! ! ! ! ! ! ) ) ) ) ! ! ! ! ! ! ! ! ! ! ! ! ! ! ",
"! ! ! ! ! ! ! ! ! ! ! ! ! ! ! ! ! ! ! ! ! ! ! ! ! ! ! ! ! ! ! ! ",
"! ! ! ! ! ! ! ! ! ! ! ! ! ! ! ! ! ! ! ! ! ! ! ! ! ! ! ! ! ! ! ! "};