/* XPM */ 
static const unsigned char * bitcoin64_xpm[] = {
"64 64 223 2",
"  	c None",
"! 	c white",
"# 	c #FEFEFE",
"$ 	c #ECECEC",
"% 	c #D7D7D7",
"& 	c #D6D6D6",
"' 	c #D0D0D0",
"( 	c #8F8F8E",
") 	c #AEAEAE",
"* 	c #AFAFAF",
"+ 	c #ABABAB",
", 	c #A0A0A1",
"- 	c #9B9B9B",
". 	c #F6F6F6",
"0 	c #A0A0A0",
"1 	c #989898",
"2 	c #FDFDFC",
"3 	c #9C9C9C",
"4 	c #949494",
"5 	c #9E9E9E",
"6 	c #BEBEBE",
"7 	c #919191",
"8 	c #8C8C8B",
"9 	c #848484",
": 	c #747474",
"; 	c #999999",
"< 	c #A4A4A4",
"= 	c #ACACAC",
"> 	c #A7A7A7",
"? 	c #979797",
"@ 	c #9F9F9F",
"A 	c #898989",
"B 	c #8C8C8C",
"C 	c #929292",
"D 	c #A3A3A3",
"E 	c #BABABA",
"F 	c #B2B2B2",
"G 	c #AAAAAA",
"H 	c #A5A5A5",
"I 	c #7D7D7D",
"J 	c #818181",
"K 	c #838382",
"L 	c #575757",
"M 	c #7E7E7E",
"N 	c #B9B9B9",
"O 	c #F9F9F9",
"P 	c #90908F",
"Q 	c #777777",
"R 	c #717171",
"S 	c #D8D8D8",
"T 	c #CBCBCB",
"U 	c #8F8F8F",
"V 	c #6E6E6E",
"W 	c #606060",
"X 	c #707070",
"Y 	c #F5F5F5",
"Z 	c #DEDEDE",
"[ 	c #848383",
"] 	c #5B5B5B",
"^ 	c #454545",
"_ 	c #40403F",
"` 	c #4E4E4E",
"a 	c #656565",
"b 	c #7A7A7A",
"c 	c #B0B0B0",
"d 	c #DFDFDF",
"e 	c #BFBFBF",
"f 	c #797979",
"g 	c #BCBCBC",
"h 	c #C3C3C3",
"i 	c #E3E3E3",
"j 	c #D2D2D2",
"k 	c #CFCFCF",
"l 	c #B6B6B6",
"m 	c #404040",
"n 	c #FCFCFC",
"o 	c #B7B7B6",
"p 	c #ABABAA",
"q 	c #6B6B6B",
"r 	c #676767",
"s 	c #737373",
"t 	c #0D0D0D",
"u 	c #4A4A4A",
"v 	c #C0C0C0",
"w 	c #B5B5B5",
"x 	c #C8C8C8",
"y 	c #C6C6C6",
"z 	c #CACACA",
"{ 	c #C5C5C5",
"| 	c #C4C4C4",
"} 	c #969696",
"~ 	c #DDDDDD",
" !	c #808080",
"!!	c #B3B3B3",
"#!	c #CCCCCC",
"$!	c #EBEBEB",
"%!	c #B2B2B1",
"&!	c #C9C9C9",
"'!	c black",
"(!	c #010101",
")!	c #3A3A3A",
"*!	c #5C5C5C",
"+!	c #B4B4B4",
",!	c #F1F1F0",
"-!	c #F5F5F4",
".!	c #D1D1D1",
"0!	c #A9A9A9",
"1!	c #E0E0DF",
"2!	c #C1C1C1",
"3!	c #F2F2F2",
"4!	c #FDFDFD",
"5!	c #1B1B1B",
"6!	c #525252",
"7!	c #6F6F6F",
"8!	c #1D1D1D",
"9!	c #909090",
":!	c #E0E0E0",
";!	c #E7E7E7",
"<!	c #CECECE",
"=!	c #5D5D5D",
">!	c #696969",
"?!	c #939392",
"@!	c #737372",
"A!	c #FAFAFA",
"B!	c #424242",
"C!	c #4D4D4D",
"D!	c #767675",
"E!	c #A2A2A2",
"F!	c #A8A8A7",
"G!	c #131313",
"H!	c #0A0A0A",
"I!	c #535353",
"J!	c #8B8B8B",
"K!	c #373737",
"L!	c #E1E1E1",
"M!	c #E9E9E9",
"N!	c #292929",
"O!	c #363636",
"P!	c #1C1C1C",
"Q!	c #CACAC9",
"R!	c #878787",
"S!	c #DBDBDB",
"T!	c #BBBBBB",
"U!	c #080808",
"V!	c #F7F7F7",
"W!	c #C0C0BF",
"X!	c #D3D3D3",
"Y!	c #F0F0F0",
"Z!	c #B1B1B1",
"[!	c #FBFBFB",
"]!	c #EDEDED",
"^!	c #4A4A49",
"_!	c #AFAFAE",
"`!	c #EBEBEA",
"a!	c #F8F8F8",
"b!	c #E2E2E2",
"c!	c #AEAEAD",
"d!	c #727272",
"e!	c #F3F3F2",
"f!	c #8D8D8D",
"g!	c #CDCDCD",
"h!	c #B7B7B7",
"i!	c #7B7B7B",
"j!	c #ADADAC",
"k!	c #BBBABA",
"l!	c #A5A5A4",
"m!	c #9A9A9A",
"n!	c #E8E8E8",
"o!	c #DBDBDA",
"p!	c #E4E4E4",
"q!	c #626262",
"r!	c #A8A8A8",
"s!	c #D9D9D9",
"t!	c #F4F4F4",
"u!	c #878786",
"v!	c #9D9D9D",
"w!	c #757575",
"x!	c #202020",
"y!	c #F3F3F3",
"z!	c #848483",
"{!	c #E1E1E0",
"|!	c #C5C5C4",
"}!	c #545454",
"~!	c #222222",
" #	c #7F7F7F",
"!#	c #E6E6E6",
"##	c #3D3D3D",
"$#	c #1E1E1E",
"%#	c #888888",
"&#	c #BEBEBD",
"'#	c #3B3B3B",
"(#	c #636363",
")#	c #272726",
"*#	c #7C7C7B",
"+#	c #A9A9A8",
",#	c #5F5F5F",
"-#	c #060606",
".#	c #F0F0EF",
"0#	c #868685",
"1#	c #D4D4D4",
"2#	c #020202",
"3#	c #EAEAEA",
"4#	c #686867",
"5#	c #959595",
"6#	c #191919",
"7#	c #868686",
"8#	c #B9B9B8",
"9#	c #C2C2C2",
":#	c #161616",
";#	c #787878",
"<#	c #C9C8C8",
"=#	c #B6B6B5",
">#	c #A0A09F",
"?#	c #C2C2C1",
"@#	c #B5B5B4",
"A#	c #6A6A6A",
"B#	c #A1A1A1",
"C#	c #252525",
"D#	c #1A1A1A",
"E#	c #8A8A8A",
"F#	c #666666",
"G#	c #464646",
"H#	c #979796",
"! ! ! ! ! ! ! ! ! ! ! ! ! ! ! ! ! ! ! ! ! ! ! ! ! ! ! ! ! ! ! ! ! ! ! ! ! ! ! ! ! ! ! ! ! ! ! ! ! ! ! ! ! ! ! ! ! ! ! ! ! ! ! ! ",
"! ! ! ! ! ! ! ! ! ! ! ! ! ! ! ! ! ! ! ! ! ! ! ! ! ! ! ! ! ! ! ! ! ! ! ! ! ! ! ! ! ! ! ! ! ! ! ! ! ! ! ! ! ! ! ! ! ! ! ! ! ! ! ! ",
"! ! ! ! ! ! ! ! ! ! ! ! ! ! ! ! ! ! ! ! ! ! ! ! ! ! ! ! ! ! ! ! ! ! ! ! ! ! ! ! ! ! ! ! ! ! ! ! ! ! ! ! ! ! ! ! ! ! ! ! ! ! ! ! ",
"! ! ! ! ! ! ! ! ! ! ! ! ! ! ! ! ! ! ! ! ! ! ! ! ! ! ! ! ! ! ! ! ! ! ! ! ! ! ! ! ! ! ! ! ! ! ! ! ! ! ! ! ! ! ! ! ! ! ! ! ! ! ! ! ",
"! ! ! ! ! ! ! ! ! ! ! ! ! ! ! ! ! ! ! ! ! ! ! ! ! ! ! ! ! ! ! ! ! ! ! ! ! ! ! ! ! ! ! ! ! ! ! ! ! ! ! ! ! ! ! ! ! ! ! ! ! ! ! ! ",
"! ! ! ! ! ! ! ! ! ! ! ! ! ! ! ! ! ! ! ! ! ! ! ! ! ! ! ! ! ! ! ! ! ! ! ! ! ! ! ! ! ! ! ! ! ! ! ! ! ! ! ! ! ! ! ! ! ! ! ! ! ! ! ! ",
"! ! ! ! ! ! ! ! ! ! ! ! ! ! ! ! ! ! ! ! ! ! ! ! ! ! ! ! ! ! ! ! ! ! ! ! ! ! ! ! ! ! ! ! ! ! ! ! ! ! ! ! ! ! ! ! ! ! ! ! ! ! ! ! ",
"! ! ! ! ! ! ! ! ! ! ! ! ! ! ! ! ! ! ! ! ! ! ! ! ! ! ! ! # $ % & ' $ ! ! ! ! ! ! ! ! ! ! ! ! ! ! ! ! ! ! ! ! ! ! ! ! ! ! ! ! ! ! ",
"! ! ! ! ! ! ! ! ! ! ! ! ! ! ! ! ! ! ! ! ! ! ! ! ! ! ! ! # ( ) * + , ! ! ! ! ! ! ! ! ! ! ! ! ! ! ! ! ! ! ! ! ! ! ! ! ! ! ! ! ! ! ",
"! ! ! ! ! ! ! ! ! ! ! ! ! ! ! ! ! ! ! ! ! ! ! ! ! ! ! ! ! - # ! . 0 # ! ! ! ! ! ! ! ! ! ! ! ! ! ! ! ! ! ! ! ! ! ! ! ! ! ! ! ! ! ",
"! ! ! ! ! ! ! ! ! ! ! ! ! ! ! ! ! ! ! ! ! ! ! ! ! ! ! ! ! 1 # ! 2 3 ! ! ! ! ! ! ! ! ! ! ! ! ! ! ! ! ! ! ! ! ! ! ! ! ! ! ! ! ! ! ",
"! ! ! ! ! ! ! ! ! ! ! ! ! ! ! ! ! ! ! ! ! ! ! ! ! ! ! ! ! 4 # # # 5 # # # # # # # # # # # # # # # ! ! ! ! ! ! ! ! ! ! ! ! ! ! ! ",
"! ! ! ! ! ! ! ! ! ! ! ! ! ! ! 6 7 8 9 : ; ; < = = = > ? @ A B C - D E F ) G H D 0 > > I J K L 5 M # ! ! ! ! ! ! ! ! ! ! ! ! ! ! ",
"! ! ! ! ! ! ! ! ! ! ! ! ! ! ! N O P Q R S # T 5 = U V W X Y ! ! Z @ [ ] ^ _ ` a b c d e B f ( # H # ! ! ! ! ! ! ! ! ! ! ! ! ! ! ",
"! ! ! ! ! ! ! ! ! ! ! ! ! ! ! g # h ] ' b i # # # # # # # # # # # # # # # # # # # j k l m A Y n - # ! ! ! ! ! ! ! ! ! ! ! ! ! ! ",
"! ! ! ! ! ! ! ! ! ! ! ! ! ! ! o p g 7 q d r 7 G = = G G F s t u v w x y z x { | } ~  !? 6 !!G * h # ! ! ! ! ! ! ! ! ! ! ! ! ! ! ",
"! ! ! ! ! ! ! ! ! ! ! ! ! ! ! ! ! ! ! ! #!$!%!&!# ! ! # } '!(!)!*!+!# ! # # ,!* -!} .!# ! ! ! ! ! ! ! ! ! ! ! ! ! ! ! ! ! ! ! ! ",
"! ! ! ! ! ! ! ! ! ! ! ! ! ! ! ! ! ! ! ! # 0!1!w 2!3!# 4!I 5!6!7!8!} # # O E B K 9!:!# ! ! ! ! ! ! ! ! ! ! ! ! ! ! ! ! ! ! ! ! ! ",
"! ! ! ! ! ! ! ! ! ! ! ! ! ! ! ! ! ! ! ! # # 2!) ;!<!l & W =!>!s (!9 ?!w N I @!> n ! ! ! ! ! ! ! ! ! ! ! ! ! ! ! ! ! ! ! ! ! ! ! ",
"! ! ! ! ! ! ! ! ! ! ! ! ! ! ! ! ! ! ! ! ! ! # # +!&!A!%  !'!B!W C!q G D!<!E!:!# ! ! ! ! ! ! ! ! ! ! ! ! ! ! ! ! ! ! ! ! ! ! ! ! ",
"! ! ! ! ! ! ! ! ! ! ! ! ! ! ! ! ! ! ! ! ! ! ! ! # i F!C!!!G!'!H!I!4!J!K!{ # ! ! ! ! ! ! ! ! ! ! ! ! ! ! ! ! ! ! ! ! ! ! ! ! ! ! ",
"! ! ! ! ! ! ! ! ! ! ! ! ! ! ! ! ! ! ! ! ! ! ! ! ! ! # L!M!N!O!+!e 3!P!6 ! ! ! ! ! ! ! ! ! ! ! ! ! ! ! ! ! ! ! ! ! ! ! ! ! ! ! ! ",
"! ! ! ! ! ! ! ! ! ! ! ! ! ! ! ! ! ! ! ! ! ! ! ! ! ! ! # Q!#!) R!S!T!U!V!! ! ! ! ! ! ! ! ! ! ! ! ! ! ! ! ! ! ! ! ! ! ! ! ! ! ! ! ",
"! ! ! ! ! ! ! ! ! ! ! ! ! ! ! ! ! ! ! ! ! ! ! ! ! ! ! # W!X!Y!Z![!]!^!# ! ! ! ! ! ! ! ! ! ! ! ! ! ! ! ! ! ! ! ! ! ! ! ! ! ! ! ! ",
"! ! ! ! ! ! ! ! ! ! ! ! ! ! ! ! ! ! ! ! ! ! ! ! ! ! ! ! X!_!`!a!# A!q # ! ! ! ! ! ! ! ! ! ! ! ! ! ! ! ! ! ! ! ! ! ! ! ! ! ! ! ! ",
"! ! ! ! ! ! ! ! ! ! ! ! ! ! ! ! ! ! ! ! ! ! ! ! ! ! ! ! b!c!# ! # * d!# ! ! ! ! ! ! ! ! ! ! ! ! ! ! ! ! ! ! ! ! ! ! ! ! ! ! ! ! ",
"! ! ! ! ! ! ! ! ! ! ! ! ! ! ! ! ! ! ! ! ! ! ! ! ! ! ! ! e!f!# ! # g!B # ! ! ! ! ! ! ! ! ! ! ! ! ! ! ! ! ! ! ! ! ! ! ! ! ! ! ! ! ",
"! ! ! ! ! ! ! ! ! ! ! ! ! ! ! ! ! ! ! ! ! ! ! ! ! ! ! ! h!k # 3!O i!j!# ! ! ! ! ! ! ! ! ! ! ! ! ! ! ! ! ! ! ! ! ! ! ! ! ! ! ! ! ",
"! ! ! ! ! ! ! ! ! ! ! ! ! ! ! ! ! ! ! ! ! ! ! ! ! ! ! # k!# ! $!~ l!e # ! ! ! ! ! ! ! ! ! ! ! ! ! ! ! ! ! ! ! ! ! ! ! ! ! ! ! ! ",
"! ! ! ! ! ! ! ! ! ! ! ! ! ! ! ! ! ! ! ! ! ! ! ! ! ! ! A!m!j n!# n R!U # ! ! ! ! ! ! ! ! ! ! ! ! ! ! ! ! ! ! ! ! ! ! ! ! ! ! ! ! ",
"! ! ! ! ! ! ! ! ! ! ! ! ! ! ! ! ! ! ! ! ! ! ! ! ! ! ! j o!p!Z!5 0!x q!# ! ! ! ! ! ! ! ! ! ! ! ! ! ! ! ! ! ! ! ! ! ! ! ! ! ! ! ! ",
"! ! ! ! ! ! ! ! ! ! ! ! ! ! ! ! ! ! ! ! ! ! ! ! ! ! ! n!> r!s!B!U } O!t!! ! ! ! ! ! ! ! ! ! ! ! ! ! ! ! ! ! ! ! ! ! ! ! ! ! ! ! ",
"! ! ! ! ! ! ! ! ! ! ! ! ! ! ! ! ! ! ! ! ! ! ! ! ! ! ! # u!v!E!w!M!.!x!y!! ! ! ! ! ! ! ! ! ! ! ! ! ! ! ! ! ! ! ! ! ! ! ! ! ! ! ! ",
"! ! ! ! ! ! ! ! ! ! ! ! ! ! ! ! ! ! ! ! ! ! ! ! ! ! ! # z!{!2!|!}!f ~![!! ! ! ! ! ! ! ! ! ! ! ! ! ! ! ! ! ! ! ! ! ! ! ! ! ! ! ! ",
"! ! ! ! ! ! ! ! ! ! ! ! ! ! ! ! ! ! ! ! ! ! ! ! ! ! ! !  #!###<!7 M!} # ! ! ! ! ! ! ! ! ! ! ! ! ! ! ! ! ! ! ! ! ! ! ! ! ! ! ! ! ",
"! ! ! ! ! ! ! ! ! ! ! ! ! ! ! ! ! ! ! ! ! ! ! ! ! ! ! ! * Y!p!$#%#&#> # ! ! ! ! ! ! ! ! ! ! ! ! ! ! ! ! ! ! ! ! ! ! ! ! ! ! ! ! ",
"! ! ! ! ! ! ! ! ! ! ! ! ! ! ! ! ! ! ! ! ! ! ! ! ! ! ! ! i | # '#V!%#; # ! ! ! ! ! ! ! ! ! ! ! ! ! ! ! ! ! ! ! ! ! ! ! ! ! ! ! ! ",
"! ! ! ! ! ! ! ! ! ! ! ! ! ! ! ! ! ! ! ! ! ! ! ! ! ! ! ! # (#3!)#x *#+## ! ! ! ! ! ! ! ! ! ! ! ! ! ! ! ! ! ! ! ! ! ! ! ! ! ! ! ! ",
"! ! ! ! ! ! ! ! ! ! ! ! ! ! ! ! ! ! ! ! ! ! ! ! ! ! ! ! # ,#<!-#.#} s!# ! ! ! ! ! ! ! ! ! ! ! ! ! ! ! ! ! ! ! ! ! ! ! ! ! ! ! ! ",
"! ! ! ! ! ! ! ! ! ! ! ! ! ! ! ! ! ! ! ! ! ! ! ! ! ! ! ! # 0#1#2#3#} Y!! ! ! ! ! ! ! ! ! ! ! ! ! ! ! ! ! ! ! ! ! ! ! ! ! ! ! ! ! ",
"! ! ! ! ! ! ! ! ! ! ! ! ! ! ! ! ! ! ! ! ! ! ! ! ! ! ! ! # @ J!(!X!4#[!! ! ! ! ! ! ! ! ! ! ! ! ! ! ! ! ! ! ! ! ! ! ! ! ! ! ! ! ! ",
"! ! ! ! ! ! ! ! ! ! ! ! ! ! ! ! ! ! ! ! ! ! ! ! ! ! ! ! # W!5#(!) 7!4!! ! ! ! ! ! ! ! ! ! ! ! ! ! ! ! ! ! ! ! ! ! ! ! ! ! ! ! ! ",
"! ! ! ! ! ! ! ! ! ! ! ! ! ! ! ! ! ! ! ! ! ! ! ! ! ! ! ! # m!. t S!Z!3#! ! ! ! ! ! ! ! ! ! ! ! ! ! ! ! ! ! ! ! ! ! ! ! ! ! ! ! ! ",
"! ! ! ! ! ! ! ! ! ! ! ! ! ! ! ! ! ! ! ! ! ! ! ! ! ! ! ! # h!h 6#1#7#3!! ! ! ! ! ! ! ! ! ! ! ! ! ! ! ! ! ! ! ! ! ! ! ! ! ! ! ! ! ",
"! ! ! ! ! ! ! ! ! ! ! ! ! ! ! ! ! ! ! ! ! ! ! ! ! ! ! ! # 8#L!2#| =!# ! ! ! ! ! ! ! ! ! ! ! ! ! ! ! ! ! ! ! ! ! ! ! ! ! ! ! ! ! ",
"! ! ! ! ! ! ! ! ! ! ! ! ! ! ! ! ! ! ! ! ! ! ! ! ! ! ! ! ! +#9#:#g!*!# ! ! ! ! ! ! ! ! ! ! ! ! ! ! ! ! ! ! ! ! ! ! ! ! ! ! ! ! ! ",
"! ! ! ! ! ! ! ! ! ! ! ! ! ! ! ! ! ! ! ! ! ! ! ! ! ! ! ! ! Z!;#6!w 9!# ! ! ! ! ! ! ! ! ! ! ! ! ! ! ! ! ! ! ! ! ! ! ! ! ! ! ! ! ! ",
"! ! ! ! ! ! ! ! ! ! ! ! ! ! ! ! ! ! ! ! ! ! ! ! ! ! ! ! ! <#=#>#E!I # ! ! ! ! ! ! ! ! ! ! ! ! ! ! ! ! ! ! ! ! ! ! ! ! ! ! ! ! ! ",
"! ! ! ! ! ! ! ! ! ! ! ! ! ! ! ! ! ! ! ! ! ! ! ! ! ! ! ! 4!5#o g ?#C!' # ! ! ! ! ! ! ! ! ! ! ! ! ! ! ! ! ! ! ! ! ! ! ! ! ! ! ! ! ",
"! ! ! ! ! ! ! ! ! ! ! ! ! ! ! ! ! ! ! ! ! ! ! ! ! ! ! ! V!4 + * @#; = # ! ! ! ! ! ! ! ! ! ! ! ! ! ! ! ! ! ! ! ! ! ! ! ! ! ! ! ! ",
"! ! ! ! ! ! ! ! ! ! ! ! ! ! ! ! ! ! ! ! ! ! ! ! ! ! ! ! O q!M ) J A# !# ! ! ! ! ! ! ! ! ! ! ! ! ! ! ! ! ! ! ! ! ! ! ! ! ! ! ! ! ",
"! ! ! ! ! ! ! ! ! ! ! ! ! ! ! ! ! ! ! ! ! ! ! ! ! ! ! ! # C m!U!U B#^!# ! ! ! ! ! ! ! ! ! ! ! ! ! ! ! ! ! ! ! ! ! ! ! ! ! ! ! ! ",
"! ! ! ! ! ! ! ! ! ! ! ! ! ! ! ! ! ! ! ! ! ! ! ! ! ! ! ! # #!2#'!2#C#4!# ! ! ! ! ! ! ! ! ! ! ! ! ! ! ! ! ! ! ! ! ! ! ! ! ! ! ! ! ",
"! ! ! ! ! ! ! ! ! ! ! ! ! ! ! ! ! ! ! ! ! ! ! ! ! ! ! ! ! a!D#'!'!$## ! ! ! ! ! ! ! ! ! ! ! ! ! ! ! ! ! ! ! ! ! ! ! ! ! ! ! ! ! ",
"! ! ! ! ! ! ! ! ! ! ! ! ! ! ! ! ! ! ! ! ! ! ! ! ! ! ! ! ! # %#E#F#G## ! ! ! ! ! ! ! ! ! ! ! ! ! ! ! ! ! ! ! ! ! ! ! ! ! ! ! ! ! ",
"! ! ! ! ! ! ! ! ! ! ! ! ! ! ! ! ! ! ! ! ! ! ! ! ! ! ! ! ! # H## # 1 # ! ! ! ! ! ! ! ! ! ! ! ! ! ! ! ! ! ! ! ! ! ! ! ! ! ! ! ! ! ",
"! ! ! ! ! ! ! ! ! ! ! ! ! ! ! ! ! ! ! ! ! ! ! ! ! ! ! ! ! # 5 # # f!# ! ! ! ! ! ! ! ! ! ! ! ! ! ! ! ! ! ! ! ! ! ! ! ! ! ! ! ! ! ",
"! ! ! ! ! ! ! ! ! ! ! ! ! ! ! ! ! ! ! ! ! ! ! ! ! ! ! ! ! #  !< +!U # ! ! ! ! ! ! ! ! ! ! ! ! ! ! ! ! ! ! ! ! ! ! ! ! ! ! ! ! ! ",
"! ! ! ! ! ! ! ! ! ! ! ! ! ! ! ! ! ! ! ! ! ! ! ! ! ! ! ! ! # # # # # # ! ! ! ! ! ! ! ! ! ! ! ! ! ! ! ! ! ! ! ! ! ! ! ! ! ! ! ! ! ",
"! ! ! ! ! ! ! ! ! ! ! ! ! ! ! ! ! ! ! ! ! ! ! ! ! ! ! ! ! ! ! ! ! ! ! ! ! ! ! ! ! ! ! ! ! ! ! ! ! ! ! ! ! ! ! ! ! ! ! ! ! ! ! ! ",
"! ! ! ! ! ! ! ! ! ! ! ! ! ! ! ! ! ! ! ! ! ! ! ! ! ! ! ! ! ! ! ! ! ! ! ! ! ! ! ! ! ! ! ! ! ! ! ! ! ! ! ! ! ! ! ! ! ! ! ! ! ! ! ! ",
"! ! ! ! ! ! ! ! ! ! ! ! ! ! ! ! ! ! ! ! ! ! ! ! ! ! ! ! ! ! ! ! ! ! ! ! ! ! ! ! ! ! ! ! ! ! ! ! ! ! ! ! ! ! ! ! ! ! ! ! ! ! ! ! ",
"! ! ! ! ! ! ! ! ! ! ! ! ! ! ! ! ! ! ! ! ! ! ! ! ! ! ! ! ! ! ! ! ! ! ! ! ! ! ! ! ! ! ! ! ! ! ! ! ! ! ! ! ! ! ! ! ! ! ! ! ! ! ! ! ",
"! ! ! ! ! ! ! ! ! ! ! ! ! ! ! ! ! ! ! ! ! ! ! ! ! ! ! ! ! ! ! ! ! ! ! ! ! ! ! ! ! ! ! ! ! ! ! ! ! ! ! ! ! ! ! ! ! ! ! ! ! ! ! ! "};