/* XPM */ 
static const unsigned char * bitcoin16_xpm[] = {
"16 16 41 1",
" 	c None",
"!	c white",
"#	c #F8F8F8",
"$	c #FAFAFA",
"%	c #DADADA",
"&	c #E1E1E1",
"'	c #FEFEFE",
"(	c #EEEDED",
")	c #9D9D9D",
"*	c #BABABA",
"+	c #B4B4B4",
",	c #B2B2B2",
"-	c #C0C0C0",
".	c #AFAFAF",
"0	c #B1B1B1",
"1	c #A1A1A1",
"2	c #E7E7E7",
"3	c #DDDDDD",
"4	c #E3E3E3",
"5	c #4E4E4E",
"6	c #969696",
"7	c #ECECEC",
"8	c #EAEAEA",
"9	c #8D8D8D",
":	c #A6A6A6",
";	c #FBFBFB",
"<	c #DEDEDE",
"=	c #CFCFCF",
">	c #C7C7C7",
"?	c #B7B7B7",
"@	c #A3A3A3",
"A	c #ABABAB",
"B	c #9E9E9E",
"C	c #CDCDCD",
"D	c #9A9A9A",
"E	c #D1D1D1",
"F	c #CACACA",
"G	c #AAAAAA",
"H	c #A8A8A8",
"I	c #A7A7A7",
"J	c #EBEBEB",
"!!!!!!!!!!!!!!!!",
"!!!!!!!#$!!!!!!!",
"!!!!!!!%&''''!!!",
"!!!()*+,-.012!!!",
"!!!!!3456-7!!!!!",
"!!!!!!89:;!!!!!!",
"!!!!!!!<=!!!!!!!",
"!!!!!!$>?!!!!!!!",
"!!!!!!'@A!!!!!!!",
"!!!!!!!BC!!!!!!!",
"!!!!!!!DE!!!!!!!",
"!!!!!!!AF!!!!!!!",
"!!!!!!!GA!!!!!!!",
"!!!!!!!HI!!!!!!!",
"!!!!!!!J7!!!!!!!",
"!!!!!!!!!!!!!!!!"};