/* XPM */ 
static const unsigned char * bitcoin20_xpm[] = {
"20 20 58 1",
" 	c None",
"!	c white",
"#	c #D5D5D4",
"$	c #E1E1E1",
"%	c #FAFAFA",
"&	c #DFDFDF",
"'	c #DEDEDE",
"(	c #E5E5E5",
")	c #E2E2E2",
"*	c #C3C3C3",
"+	c #CDCDCD",
",	c #E6E6E6",
"-	c #E4E4E4",
".	c #E0E0E0",
"0	c #DDDDDD",
"1	c #F4F4F4",
"2	c #E8E8E8",
"3	c #ABABAB",
"4	c #B7B7B7",
"5	c #C7C7C7",
"6	c #B6B6B6",
"7	c #C2C2C2",
"8	c #CFCFCF",
"9	c #B4B4B3",
":	c #B8B8B8",
";	c #AEAEAE",
"<	c #B3B3B3",
"=	c #EAEAEA",
">	c #D0D0D0",
"?	c #D1D1D1",
"@	c #424241",
"A	c #898989",
"B	c #D2D2D2",
"C	c #BDBDBD",
"D	c #F5F5F5",
"E	c #444444",
"F	c #8F8F8F",
"G	c #FEFEFE",
"H	c #F1F1F1",
"I	c #D4D4D4",
"J	c #BABABA",
"K	c #F6F6F6",
"L	c #C4C4C4",
"M	c #9E9E9E",
"N	c #929291",
"O	c #FDFDFD",
"P	c #939392",
"Q	c #B1B1B1",
"R	c #757575",
"S	c #C6C6C6",
"T	c #8E8E8E",
"U	c #C8C8C8",
"V	c #989897",
"W	c #BEBEBE",
"X	c #989898",
"Y	c #676767",
"Z	c #737373",
"[	c #CECECE",
"!!!!!!!!!!!!!!!!!!!!",
"!!!!!!!!!!!!!!!!!!!!",
"!!!!!!!!!#$!!!!!!!!!",
"!!!!%&'()*+,-.01!!!!",
"!!!!23456789:;<-!!!!",
"!!!!!!=>?@ABCD!!!!!!",
"!!!!!!!D?EF>G!!!!!!!",
"!!!!!!!!HIJG!!!!!!!!",
"!!!!!!!!K)*!!!!!!!!!",
"!!!!!!!!)LMG!!!!!!!!",
"!!!!!!!!03NG!!!!!!!!",
"!!!!!!!!OPQ!!!!!!!!!",
"!!!!!!!!!RS!!!!!!!!!",
"!!!!!!!!!TU!!!!!!!!!",
"!!!!!!!!!VW!!!!!!!!!",
"!!!!!!!!GMX!!!!!!!!!",
"!!!!!!!!!YZ!!!!!!!!!",
"!!!!!!!!!?[!!!!!!!!!",
"!!!!!!!!!%%!!!!!!!!!",
"!!!!!!!!!!!!!!!!!!!!"};