/* XPM */ 
static const unsigned char * bitcoin72_xpm[] = {
"72 72 241 2",
"  	c None",
"! 	c #FEFEFE",
"# 	c white",
"$ 	c #DDDDDD",
"% 	c #D2D2D2",
"& 	c #D1D1D1",
"' 	c #CBCBCB",
"( 	c #DFDFDF",
") 	c #686867",
"* 	c #A4A4A4",
"+ 	c #A5A5A5",
", 	c #A8A8A8",
"- 	c #838383",
". 	c #909090",
"0 	c #8A8A8A",
"1 	c #8B8B8B",
"2 	c #8D8D8D",
"3 	c #929292",
"4 	c #F8F8F8",
"5 	c #F1F1F1",
"6 	c #D4D4D4",
"7 	c #DADADA",
"8 	c #DBDBDB",
"9 	c #D8D8D8",
": 	c #C6C6C6",
"; 	c #C2C2C2",
"< 	c #565656",
"= 	c #A0A0A0",
"> 	c #696969",
"? 	c #BCBCBC",
"@ 	c #B7B7B7",
"A 	c #B4B4B4",
"B 	c #B2B2B2",
"C 	c #B0B0B0",
"D 	c #AFAFAF",
"E 	c #ABABAB",
"F 	c #AAAAAA",
"G 	c #A8A8A7",
"H 	c #BABABA",
"I 	c #9B9B9B",
"J 	c #B5B5B4",
"K 	c #CCCCCC",
"L 	c #9D9D9D",
"M 	c #919191",
"N 	c #A9A9A9",
"O 	c #939393",
"P 	c #737372",
"Q 	c #7C7C7C",
"R 	c #505050",
"S 	c #959595",
"T 	c #707070",
"U 	c #737373",
"V 	c #8F8F8E",
"W 	c #6F6F6F",
"X 	c #767676",
"Y 	c #B8B8B8",
"Z 	c #DEDEDE",
"[ 	c #C7C7C6",
"] 	c #B5B5B5",
"^ 	c #A5A5A4",
"_ 	c #999998",
"` 	c #939392",
"a 	c #888888",
"b 	c #898989",
"c 	c #949494",
"d 	c #D7D7D7",
"e 	c #878787",
"f 	c #6C6C6C",
"g 	c #858585",
"h 	c #8C8C8C",
"i 	c #FDFDFD",
"j 	c #4B4B4B",
"k 	c #D5D5D5",
"l 	c #545454",
"m 	c #F5F5F5",
"n 	c #E8E8E8",
"o 	c #F4F4F4",
"p 	c #E1E1E1",
"q 	c #A3A3A3",
"r 	c #EFEFEF",
"s 	c #C4C4C4",
"t 	c #848484",
"u 	c #868686",
"v 	c #B1B1B1",
"w 	c #C5C5C5",
"x 	c #F0F0F0",
"y 	c #E6E6E6",
"z 	c #BEBEBE",
"{ 	c #D9D9D9",
"| 	c #5C5C5B",
"} 	c #4A4A49",
"~ 	c #E2E2E2",
" !	c #969696",
"!!	c #F2F2F2",
"#!	c #535353",
"$!	c #E0E0E0",
"%!	c #5E5E5E",
"&!	c #FAFAFA",
"'!	c #EBEBEB",
"(!	c #CACACA",
")!	c #606060",
"*!	c #D3D3D3",
"+!	c #E5E5E5",
",!	c #AFAEAE",
"-!	c #9F9F9F",
".!	c #B3B3B3",
"0!	c #5D5D5D",
"1!	c #CECECE",
"2!	c #A1A1A1",
"3!	c #A2A2A2",
"4!	c #9A9A9A",
"5!	c #3A3A3A",
"6!	c #020202",
"7!	c #3C3C3C",
"8!	c #C3C3C3",
"9!	c #BFBFBE",
":!	c #C1C1C0",
";!	c #BEBEBD",
"<!	c #BDBDBD",
"=!	c #B9B9B9",
">!	c #C1C1C1",
"?!	c #C9C9C9",
"@!	c #EDEDED",
"A!	c #9D9D9C",
"B!	c #2D2D2D",
"C!	c black",
"D!	c #010101",
"E!	c #3B3B3B",
"F!	c #474747",
"G!	c #AEAEAE",
"H!	c #F9F9F9",
"I!	c #ADADAD",
"J!	c #FBFBFB",
"K!	c #8F8F8F",
"L!	c #434343",
"M!	c #777777",
"N!	c #3E3E3E",
"O!	c #6A6A6A",
"P!	c #989898",
"Q!	c #999999",
"R!	c #BDBDBC",
"S!	c #595959",
"T!	c #7A7A7A",
"U!	c #717171",
"V!	c #9F9F9E",
"W!	c #636363",
"X!	c #747474",
"Y!	c #E4E4E4",
"Z!	c #E7E7E7",
"[!	c #ECECEC",
"]!	c #0B0B0B",
"^!	c #9C9C9C",
"_!	c #2A2A2A",
"`!	c #E3E3E3",
"a!	c #BABAB9",
"b!	c #C0C0C0",
"c!	c #4F4F4F",
"d!	c #1A1A1A",
"e!	c #040404",
"f!	c #2F2F2F",
"g!	c #FAFAF9",
"h!	c #313131",
"i!	c #616161",
"j!	c #A6A6A6",
"k!	c #0A0A0A",
"l!	c #5A5A5A",
"m!	c #1B1B1B",
"n!	c #EAEAEA",
"o!	c #151515",
"p!	c #F6F6F6",
"q!	c #2C2C2C",
"r!	c #727272",
"s!	c #CDCDCC",
"t!	c #070707",
"u!	c #BBBBBA",
"v!	c #C7C7C7",
"w!	c #ABAAAA",
"x!	c #FCFCFC",
"y!	c #646464",
"z!	c #CDCDCD",
"{!	c #F7F7F7",
"|!	c #C8C8C7",
"}!	c #A7A7A7",
"~!	c #D2D2D1",
" #	c #5F5F5F",
"!#	c #818181",
"##	c #F3F3F3",
"$#	c #BBBBBB",
"%#	c #ACACAC",
"&#	c #3D3D3D",
"'#	c #515151",
"(#	c #242424",
")#	c #424242",
"*#	c #888887",
"+#	c #757575",
",#	c #D3D3D2",
"-#	c #494948",
".#	c #C4C4C3",
"0#	c #292929",
"1#	c #7D7D7D",
"2#	c #585858",
"3#	c #E1E1E0",
"4#	c #333333",
"5#	c #959594",
"6#	c #1F1F1F",
"7#	c #575757",
"8#	c #6A6A69",
"9#	c #383838",
":#	c #030303",
";#	c #7D7D7C",
"<#	c #C8C8C8",
"=#	c #828282",
">#	c #CFCFCF",
"?#	c #5B5B5B",
"@#	c #4D4D4D",
"A#	c #0F0F0F",
"B#	c #494949",
"C#	c #7F7F7F",
"D#	c #C2C1C1",
"E#	c #B2B2B1",
"F#	c #9A9A99",
"G#	c #4E4E4E",
"H#	c #D1D1D0",
"I#	c #454545",
"J#	c #B3B3B2",
"K#	c #858584",
"L#	c #D8D8D7",
"M#	c #343434",
"N#	c #787878",
"O#	c #484848",
"P#	c #D6D6D6",
"Q#	c #DCDCDC",
"R#	c #4C4C4C",
"S#	c #E9E9E9",
"T#	c #AAAAA9",
"U#	c #AEAEAD",
"V#	c #B8B8B7",
"W#	c #D3D3D4",
"X#	c #EEEEEE",
"Y#	c #525252",
"Z#	c #7E7E7E",
"! ! ! ! ! ! # ! ! ! ! # ! ! ! # ! ! ! ! # ! ! ! # ! ! ! ! # ! ! ! # ! ! ! ! # ! ! ! # ! ! ! ! # ! ! ! # ! ! ! ! # ! ! ! ! ! ! ! ! ! ! ! ! ! ! ! ",
"# # # # # # # # # # # # # # # # # # # # # # # # # # # # # # # # # # # # # # # # # # # # # # # # # # # # # # # # # # # # # # # # # # # # # # # # ",
"# # # # # # # # # # # # # # # # # # # # # # # # # # # # # # # # # # # # # # # # # # # # # # # # # # # # # # # # # # # # # # # # # # # # # # # # ",
"! ! ! ! ! ! ! ! ! ! ! ! ! ! ! ! ! ! ! ! ! ! ! ! ! ! ! ! ! ! ! ! ! ! ! ! ! ! ! ! ! ! ! ! ! ! ! ! ! ! ! ! ! ! ! ! ! ! ! ! ! ! ! ! ! ! ! ! ! ! ! ! ",
"# # # # # # # # # # # # # # # # # # # # # # # # # # # # # # # # # # # # # # # # # # # # # # # # # # # # # # # # # # # # # # # # # # # # # # # # ",
"! ! ! ! ! ! ! ! ! ! ! # ! ! ! # ! ! ! ! ! ! ! ! # ! ! ! ! ! ! ! ! # ! ! ! ! ! ! ! ! # ! ! ! ! ! ! ! ! # ! ! ! ! ! ! ! ! ! ! ! ! ! ! ! ! ! ! ! ! ",
"! ! ! ! ! ! ! ! ! ! ! ! ! ! ! ! ! ! ! ! ! ! ! ! ! ! ! ! ! ! ! ! ! ! ! ! ! ! ! ! ! ! ! ! ! ! ! ! ! ! ! ! ! ! ! ! ! ! ! ! ! ! ! ! ! ! ! ! ! ! ! ! ",
"# # # # # ! # # # # # # # # # # # # # # # # # # # # # # # # # # # # # # # # # # # # # # # # # # # # # # # # # # # # # # # # # # # # # # # # # # ",
"# ! # # # ! # # ! ! ! # ! # # # # ! ! ! # ! # # # # ! ! ! # ! # ! $ % & ' ( # ! # # # ! ! ! ! # ! # # # ! ! ! ! # ! # # # ! ! ! ! ! ! # # # ! ! ",
"! ! ! ! ! ! # ! ! ! ! # ! ! ! # ! ! ! ! # ! ! ! # ! ! ! ! # ! ! ! ) * + , - # ! ! ! # ! ! ! ! # ! ! ! # ! ! ! ! # ! ! ! ! ! ! ! ! ! ! ! ! ! ! ! ",
"! ! ! ! ! ! ! ! ! ! ! ! ! ! ! # ! ! ! ! ! ! ! ! # ! ! ! ! ! ! ! ! . ! ! ! 0 ! ! ! ! ! ! ! ! ! ! ! ! ! ! ! ! ! ! ! ! ! ! ! ! ! ! ! ! ! ! ! ! ! ! ",
"! ! ! ! ! ! ! ! ! ! ! ! ! ! ! ! ! ! ! ! ! ! ! ! ! ! ! ! ! ! ! ! ! 1 ! ! ! 2 ! ! ! ! ! ! ! ! ! ! ! ! ! ! ! ! ! ! ! ! ! ! ! ! ! ! ! ! ! ! ! ! ! ! ",
"! ! ! ! ! ! ! ! ! ! ! ! ! ! ! ! ! ! ! ! ! ! ! ! ! ! ! ! ! ! ! ! ! 0 ! ! ! 3 ! ! ! ! ! ! ! ! ! ! ! ! ! ! ! ! ! ! ! ! ! ! ! ! ! ! ! ! ! ! ! ! ! ! ",
"# # # # # # # # # # # # # # # # # 4 5 5 6 7 7 7 7 7 7 7 8 9 ' : ; < = + , > ; ? @ A B C D E F G H I J K L M N ! # # # # # # # # # # # # # # # # ",
"# # # # # # # # # # # # # # # # # O 2 P Q R S C C Q T U T V W X Y 8 $ Z 6 [ ] ^ _ ` 2 a b 0 c 8 d 0 e f g ! h ! # # # # # # # # # # # # # # # # ",
"# # # # # # # # # # # # # # # # # ] i ` j k l m ! m n o p = a ? q ! # # r s B q h t u I v w x y z { | } ~ !  !! # # # # # # # # # # # # # # # # ",
"# # # # # ! # # # # ! # # # # # # v ! !!#!Q $!%!&!! ! ! ! ! ! ! ! &!'!i # ! ! ! ! ! ! ! ! ! (!s K l )!, *!+!e ! # # # # # # # # # # # # # # # # ",
"# ! # # # ! # # ! ! ! # ! # # # # ,!-!.!C 0!N 1!R 2 2!3!3!= -!, 4!5!6!7!D C 8!9!; 8!:!;!<!b d 3!h =!>!<!<!<!?!! # ! # # # ! ! ! ! ! ! # # # ! ! ",
"! ! ! ! ! ! # ! ! ! ! # ! ! ! # ! ! ! ! # ! m >!@!A!$ ! ! # ! i B!C!D!E!F!2!! ! ! ! ! x G!H!A 2!! ! ! # ! ! ! ! # ! ! ! ! ! ! ! ! ! ! ! ! ! ! ! ",
"! ! ! ! ! ! ! ! ! ! ! ! ! ! ! # ! ! ! ! ! ! ! 9 I!J!K!?!i ! ! z 5!6!L!M!N!O!! ! ! H!v O - P!G!! ! ! ! ! ! ! ! ! ! ! ! ! ! ! ! ! ! ! ! ! ! ! ! ! ",
"! ! ! ! ! ! ! ! ! ! ! ! ! ! ! ! ! ! ! ! ! ! ! ! n Q!: @!R!8!J!$ S!2 T!)!C!U!@!8!B V!W!X!g Y!! ! ! ! ! ! ! ! ! ! ! ! ! ! ! ! ! ! ! ! ! ! ! ! ! ! ",
"! ! ! ! ! ! ! ! ! ! ! ! ! ! ! ! ! ! ! ! ! ! ! ! ! ! { P!Z![!3 w ]!6!X!^!_!< 5!P!7 `!-!a!i ! ! ! ! ! ! ! ! ! ! ! ! ! ! ! ! ! ! ! ! ! ! ! ! ! ! ! ",
"# # # # # # # # # # # # # # # # # # # # # # # # # # # J!D b!I ( c!C!d!e!f!D g!h!i!j!y ! ! # # # # # # # # # # # # # # # # # # # # # # # # # # # ",
"# # # # # # # # # # # # # # # # # # # # # # # # # # # ! ! 5 q M = C!k!l!1 5 j!m!n!! ! # # # # # # # # # # # # # # # # # # # # # # # # # # # # # ",
"# # # # # # # # # # # # # # # # # # # # # # # # # # # # # ! ! 1!{ o!t Q!b!p!q!r!! # # # # # # # # # # # # # # # # # # # # # # # # # # # # # # # ",
"# # # # # ! # # # # ! # # # # # # # # ! # # # # # # # # ! # ! s!@!K s Q $!r t!j!! # # # # # # # # # # # # # # # # # # # # # # # # # # # # # # # ",
"# ! # # # ! # # ! ! ! # ! # # # # ! ! ! # ! # # # # ! ! ! # ! i u!v!o w!&!x!y!(!! # # ! ! ! ! # ! # # # ! ! ! ! # ! # # # ! ! ! ! ! ! # # # ! ! ",
"! ! ! ! ! ! # ! ! ! ! # ! ! ! # ! ! ! ! # ! ! ! # ! ! ! ! # ! ! z!V J!{!! ! g 9 ! ! # ! ! ! ! # ! ! ! # ! ! ! ! # ! ! ! ! ! ! ! ! ! ! ! ! ! ! ! ",
"! ! ! ! ! ! ! ! ! ! ! ! ! ! ! # ! ! ! ! ! ! ! ! # ! ! ! ! ! ! ! ; |!! ! ! }!0!5 ! ! ! ! ! ! ! ! ! ! ! ! ! ! ! ! ! ! ! ! ! ! ! ! ! ! ! ! ! ! ! ! ",
"! ! ! ! ! ! ! ! ! ! ! ! ! ! ! ! ! ! ! ! ! ! ! ! ! ! ! ! ! ! ! ! * 1!! ! ! ~!T!i ! ! ! ! ! ! ! ! ! ! ! ! ! ! ! ! ! ! ! ! ! ! ! ! ! ! ! ! ! ! ! ! ",
"! ! ! ! ! ! ! ! ! ! ! ! ! ! ! ! ! ! ! ! ! ! ! ! ! ! ! ! ! ! ! ! U '!! ! ! H  #! ! ! ! ! ! ! ! ! ! ! ! ! ! ! ! ! ! ! ! ! ! ! ! ! ! ! ! ! ! ! ! ! ",
"# # # # # # # # # # # # # # # # # # # # # # # # # # # # # # # ! I!! # { x!b !#! # # # # # # # # # # # # # # # # # # # # # # # # # # # # # # # # ",
"# # # # # # # # # # # # # # # # # # # # # # # # # # # # # # ! ##$#! # J!##s!t ! # # # # # # # # # # # # # # # # # # # # # # # # # # # # # # # # ",
"# # # # # # # # # # # # # # # # # # # # # # # # # # # # # # ! %#? Y K ! J!O &#! # # # # # # # # # # # # # # # # # # # # # # # # # # # # # # # # ",
"# # # # # # # # # # ! # # # # # # # # ! # # # # # # # # ! # ! 3!i {!* K!+ ( '#y # # # # ! ! # # # # # # # ! ! # # # # # # # ! ! # # # # # # # ! ",
"# ! # ! # ! # # ! ! ! # ! # # # ! ! ! ! # ! # # # ! ! ! ! # ! q E E ( (#- b )#+ # # # ! ! ! ! # ! # # # ! ! ! ! # ! # # # ! ! ! ! # ! # # # ! ! ",
"! ! ! ! ! ! # ! ! ! ! # ! ! ! # ! ! ! ! # ! ! ! # ! ! ! ! # ! *#8 T!I +#5 ,#-#P!! # # ! ! ! ! # ! ! # # ! ! ! ! # ! ! ! ! ! ! ! ! ! ! ! ! ! ! ! ",
"! ! ! ! ! ! ! ! ! ! ! ! ! ! ! # ! ! ! ! ! ! ! ! # ! ! ! ! ! ! %#z!$ C .#y!A 0#N ! ! ! ! ! ! ! ! ! ! ! ! ! ! ! ! ! ! ! ! ! ! ! ! ! ! ! ! ! ! ! ! ",
"! ! ! ! ! ! ! ! ! ! ! ! ! ! ! ! ! ! ! ! ! ! ! ! ! ! ! ! ! ! ! Y!1#D c!p U B < 5 ! ! ! ! ! ! ! ! ! ! ! ! ! ! ! ! ! ! ! ! ! ! ! ! ! ! ! ! ! ! ! ! ",
"! ! ! ! ! ! ! ! ! ! ! ! ! ! ! ! ! ! ! ! ! ! ! ! ! ! ! ! ! ! ! i 2 i a R 2#3#-!i ! ! ! ! ! ! ! ! ! ! ! ! ! ! ! ! ! ! ! ! ! ! ! ! ! ! ! ! ! ! ! ! ",
"# # # # # # # # # # # # # # # # # # # # # # # # # # # # # # # ! I ! Z!4#p  !5#! # # # # # # # # # # # # # # # # # # # # # # # # # # # # # # # # ",
"# # # # # # # # # # # # # # # # # # # # # # # # # # # # # # # ! G Z!i 6#!!7#K!! # # # # # # # # # # # # # # # # # # # # # # # # # # # # # # # # ",
"# # # # # # # # # # # # # # # # # # # # # # # # # # # # # # # # p #!& ]!~ 8#` ! # # # # # # # # # # # # # # # # # # # # # # # # # # # # # # # # ",
"# # # # # # # # # # ! # # # # # # # # ! # # # # # # # # ! # # # x!9#(!:#x ?!3!! # # # # ! ! # # # # # # # ! ! # # # # # # # ! ! # # # # # # # ! ",
"# ! # ! # ! # # ! ! ! # ! # # # ! ! ! ! # ! # # # ! ! ! ! # ! # x!;#B D!n <#D ! # # # ! ! ! ! # ! # # # ! ! ! ! # ! # # # ! ! ! ! # ! # # # ! ! ",
"! ! ! ! ! ! # ! ! ! ! # ! ! ! # ! ! ! ! # ! ! ! # ! ! ! ! # ! ! 5 4!)!D!d =#' ! ! # # ! ! ! ! # ! ! # # ! ! ! ! # ! ! ! ! ! ! ! ! ! ! ! ! ! ! ! ",
"! ! ! ! ! ! ! ! ! ! ! ! ! ! ! # ! ! ! ! ! ! ! ! # ! ! ! ! ! ! ! >#n!?#C!Q!r!9 ! ! ! ! ! ! ! ! ! ! ! ! ! ! ! ! ! ! ! ! ! ! ! ! ! ! ! ! ! ! ! ! ! ",
"! ! ! ! ! ! ! ! ! ! ! ! ! ! ! ! ! ! ! ! ! ! ! ! ! ! ! ! ! ! ! ! 6 >!(!6!(!+!C ! ! ! ! ! ! ! ! ! ! ! ! ! ! ! ! ! ! ! ! ! ! ! ! ! ! ! ! ! ! ! ! ! ",
"! ! ! ! ! ! ! ! ! ! ! ! ! ! ! ! ! ! ! ! ! ! ! ! ! ! ! ! ! ! ! ! {!= ' e!y 1!, ! ! ! ! ! ! ! ! ! ! ! ! ! ! ! ! ! ! ! ! ! ! ! ! ! ! ! ! ! ! ! ! ! ",
"# # # # # # # # # # # # # # # # # # # # # # # # # # # # # # # # ! ? E 6!.!O ; # # # # # # # # # # # # # # # # # # # # # # # # # # # # # # # # # ",
"# # # # # # # # # # # # # # # # # # # # # # # # # # # # # # # # ! P!6 6!(!@#r # # # # # # # # # # # # # # # # # # # # # # # # # # # # # # # # # ",
"# # # # # # # # # # # # # # # # # # # # # # # # # # # # # # # # # i!6 A#b!7#! # # # # # # # # # # # # # # # # # # # # # # # # # # # # # # # # # ",
"# # # # # # # # # # ! # # # # # # # # ! # # # # # # # # ! # # # # g K!B#D C#! # # # # # ! ! # # # # # # # ! ! # # # # # # # ! ! # # # # # # # ! ",
"# ! # ! # ! # # ! ! ! # ! # # # ! ! ! ! # ! # # # ! ! ! ! # ! # # D#E#F#A G#! ! # # # ! ! ! ! # ! # # # ! ! ! ! # ! # # # ! ! ! ! # ! # # # ! ! ",
"! ! ! ! ! ! # ! ! ! ! # ! ! ! # ! ! ! ! # ! ! ! # ! ! ! ! # ! ! ( L $#z H#I#Y ! ! # # ! ! ! ! # ! ! # # ! ! ! ! # ! ! ! ! ! ! ! ! ! ! ! ! ! ! ! ",
"! ! ! ! ! ! ! ! ! ! ! ! ! ! ! # ! ! ! ! ! ! ! ! # ! ! ! ! ! ! ! %#}!C * J#g K#i ! ! ! ! ! ! ! ! ! ! ! ! ! ! ! ! ! ! ! ! ! ! ! ! ! ! ! ! ! ! ! ! ",
"! ! ! ! ! ! ! ! ! ! ! ! ! ! ! ! ! ! ! ! ! ! ! ! ! ! ! ! ! ! ! ! I!T!L#:!K!w )!x ! ! ! ! ! ! ! ! ! ! ! ! ! ! ! ! ! ! ! ! ! ! ! ! ! ! ! ! ! ! ! ! ",
"! ! ! ! ! ! ! ! ! ! ! ! ! ! ! ! ! ! ! ! ! ! ! ! ! ! ! ! ! ! ! ! E C )!M#S N#O#P#! ! ! ! ! ! ! ! ! ! ! ! ! ! ! ! ! ! ! ! ! ! ! ! ! ! ! ! ! ! ! ! ",
"# # # # # # # # # # # # # # # # # # # # # # # # # # # # # # # # Q#X!R#6!_!2#0 +!# # # # # # # # # # # # # # # # # # # # # # # # # # # # # # # # ",
"# # # # # # # # # # # # # # # # # # # # # # # # # # # # # # # # ! I!C!C!C!D!S#! # # # # # # # # # # # # # # # # # # # # # # # # # # # # # # # # ",
"# # # # # # # # # # # # # # # # # # # # # # # # # # # # # # ! # # z )#D!C!C!$ ! # # # # # # # # ! # # # # # # # # ! # # # # # # # # # # # # # # ",
"# # # # # # # # # # # # # # # # # # # # # # # # # # # # # # ! # # 1!T#A c 2#Q#! # # # # # ! # # ! # # # # # ! # # ! # # # # # ! # # # # # # # # ",
"# ! # ! # ! # # ! ! ! # ! # # # ! ! ! ! # ! # # # ! ! ! ! # ! # # Q#U#! ! V#W#! # # # ! ! ! ! # ! # # # ! ! ! ! # ! # # # ! ! ! ! # ! # # # ! ! ",
"! ! ! ! ! ! # ! ! ! ! # ! ! ! # ! ! ! ! # ! ! ! # ! ! ! ! # ! ! # [!, ! ! T#W#! ! # # ! ! ! ! # ! ! # # ! ! ! ! # ! ! ! ! ! ! ! ! ! ! ! ! ! ! ! ",
"! ! ! ! ! ! ! ! ! ! ! # ! ! ! # ! ! ! ! ! ! ! ! # ! ! ! ! ! ! ! ! X#Y#4!E Z#{ ! ! ! # ! ! ! ! ! ! ! ! # ! ! ! ! ! ! ! ! ! ! ! ! ! ! ! ! ! ! ! ! ",
"! ! ! ! ! ! ! ! ! ! ! ! ! ! ! ! ! ! ! ! ! ! ! ! ! ! ! ! ! ! ! ! ! ! ! x!x!i ! ! ! ! ! ! ! ! ! ! ! ! ! ! ! ! ! ! ! ! ! ! ! ! ! ! ! ! ! ! ! ! ! ! ",
"! ! ! ! ! ! ! ! ! ! ! ! ! ! ! ! ! ! ! ! ! ! ! ! ! ! ! ! ! ! ! ! ! ! ! ! ! ! ! ! ! ! ! ! ! ! ! ! ! ! ! ! ! ! ! ! ! ! ! ! ! ! ! ! ! ! ! ! ! ! ! ! ",
"# # # # # # # # # # # # # # # # # # # # # # # # # # # # # # # # # # # # # # # # # # # # # # # # # # # # # # # # # # # # # # # # # # # # # # # # ",
"# # # # # # # # # # # # # # # # # # # # # # # # # # # # # # # # # # # # # # # # # # # # # # # # # # # # # # # # # # # # # # # # # # # # # # # # ",
"# # # # # # # # # # # # # # # # # # # # # # # # # # # # # # ! # # # # # # # # ! # # # # # # # # ! # # # # # # # # ! # # # # # # # # # # # # # # ",
"# # # # # # # # # # # # # # # # # # # # # # # # # # # # # # ! # # # # # ! # # ! # # # # # ! # # ! # # # # # ! # # ! # # # # # ! # # # # # # # # ",
"# ! # ! # ! # # ! ! ! # ! # # # ! ! ! ! # ! # # # ! ! ! ! # ! # # # ! ! ! ! # ! # # # ! ! ! ! # ! # # # ! ! ! ! # ! # # # ! ! ! ! # ! # # # ! ! "};