/* XPM */ 
static const unsigned char * bitcoin48_xpm[] = {
"48 48 166 2",
"  	c None",
"! 	c white",
"# 	c #FEFEFE",
"$ 	c #E6E6E6",
"% 	c #E0E0E0",
"& 	c #DBDBDB",
"' 	c #8F8F8F",
"( 	c #C3C3C3",
") 	c #919191",
"* 	c #F5F5F5",
"+ 	c #B2B2B2",
", 	c #BFBFBF",
"- 	c #F1F1F2",
". 	c #AFAFAF",
"0 	c #C6C6C6",
"1 	c #EEEEEE",
"2 	c #CCCCCC",
"3 	c #ADADAD",
"4 	c #868686",
"5 	c #7C7C7C",
"6 	c #A9A9A9",
"7 	c #888888",
"8 	c #898989",
"9 	c #949494",
": 	c #7B7B7B",
"; 	c #9B9B9B",
"< 	c #A2A2A2",
"= 	c #A0A0A0",
"> 	c #A6A5A5",
"? 	c #939393",
"@ 	c #878786",
"A 	c #7F7F7F",
"B 	c #797979",
"C 	c #A1A1A1",
"D 	c #848484",
"E 	c #626262",
"F 	c #B1B1B1",
"G 	c #A6A6A6",
"H 	c #CDCDCD",
"I 	c #F1F1F0",
"J 	c #565656",
"K 	c #B8B8B8",
"L 	c #FDFDFD",
"M 	c #F1F1F1",
"N 	c #F6F6F6",
"O 	c #CBCBCB",
"P 	c #BDBDBD",
"Q 	c #C5C5C5",
"R 	c #AEAEAE",
"S 	c #C8C8C8",
"T 	c #DEDEDE",
"U 	c #D6D6D6",
"V 	c #616161",
"W 	c #909090",
"X 	c #B6B6B6",
"Y 	c #C9C9C9",
"Z 	c #C3C3C2",
"[ 	c #B0B0AF",
"] 	c #686868",
"^ 	c #969695",
"_ 	c #BCBCBC",
"` 	c #C1C1C1",
"a 	c #C0C0C0",
"b 	c #6C6C6C",
"c 	c #D2D2D2",
"d 	c #CACACA",
"e 	c #D4D4D4",
"f 	c #D7D7D7",
"g 	c #D5D5D5",
"h 	c #B4B4B4",
"i 	c #B0B0B0",
"j 	c #BEBEBE",
"k 	c #CFCFCF",
"l 	c #DADADA",
"m 	c #B7B7B7",
"n 	c #606060",
"o 	c black",
"p 	c #3B3B3B",
"q 	c #575757",
"r 	c #EDEDED",
"s 	c #E7E7E7",
"t 	c #D1D1D1",
"u 	c #FCFCFC",
"v 	c #747474",
"w 	c #676767",
"x 	c #6B6B6B",
"y 	c #020202",
"z 	c #E9E9E9",
"{ 	c #858585",
"| 	c #D0D0D0",
"} 	c #B5B5B5",
"~ 	c #EBEBEB",
" !	c #585858",
"!!	c #121212",
"#!	c #757575",
"$!	c #3F3F3F",
"%!	c #737373",
"&!	c #929292",
"'!	c #A5A5A5",
"(!	c #010101",
")!	c #2B2B2B",
"*!	c #404040",
"+!	c #F8F8F8",
",!	c #5A5A5A",
"-!	c #9A9A9A",
".!	c #D8D8D8",
"0!	c #ABABAB",
"1!	c #B4B3B3",
"2!	c #F9F9F9",
"3!	c #818181",
"4!	c #DCDCDC",
"5!	c #BDBDBC",
"6!	c #FBFBFB",
"7!	c #969696",
"8!	c #C7C7C7",
"9!	c #DFDFDF",
":!	c #8A8A8A",
";!	c #AAAAAA",
"<!	c #F7F7F7",
"=!	c #848483",
">!	c #F4F4F4",
"?!	c #B9B9B8",
"@!	c #5C5C5B",
"A!	c #E8E8E8",
"B!	c #B3B3B3",
"C!	c #727272",
"D!	c #A4A4A4",
"E!	c #717171",
"F!	c #9E9E9E",
"G!	c #ACACAC",
"H!	c #BABABA",
"I!	c #A8A8A8",
"J!	c #6F6F6F",
"K!	c #5D5D5D",
"L!	c #EAEAEA",
"M!	c #F2F2F2",
"N!	c #525252",
"O!	c #9C9C9C",
"P!	c #C2C2C2",
"Q!	c #8B8B8B",
"R!	c #3E3E3E",
"S!	c #999999",
"T!	c #262626",
"U!	c #F0F0F0",
"V!	c #EFEFEF",
"W!	c #B1B1B0",
"X!	c #242424",
"Y!	c #C4C4C4",
"Z!	c #2F2F2F",
"[!	c #E3E3E3",
"]!	c #9F9F9F",
"^!	c #C2C2C1",
"_!	c #323232",
"`!	c #BBBBBB",
"a!	c #9D9D9D",
"b!	c #70706F",
"c!	c #656565",
"d!	c #989898",
"e!	c #DDDDDD",
"f!	c #979797",
"g!	c #383838",
"h!	c #E1E1E1",
"i!	c #636363",
"j!	c #414141",
"k!	c #0E0E0E",
"l!	c #E2E2E2",
"! ! ! ! ! ! ! ! ! ! ! ! ! ! ! ! ! ! ! ! ! ! ! ! ! ! ! ! ! ! ! ! ! ! ! ! ! ! ! ! ! ! ! ! ! ! ! ! ",
"# # # # # # # # # # # # # # # # # # # # # # # # # # # # # # # # # # # # # # # # # # # # # # # # ",
"! # ! ! # ! ! # ! # ! # # ! # # ! # # ! # ! ! # ! ! # ! ! # ! ! # ! ! # ! ! # # ! ! # ! ! # ! ! ",
"! ! ! ! ! ! ! ! ! ! ! ! ! ! ! ! ! ! ! ! ! ! ! ! ! ! ! ! ! ! ! ! ! ! ! ! ! ! ! ! ! ! ! ! ! ! ! ! ",
"# # # # # # # # # # # # # # # # # # # # # # # # # # # # # # # # # # # # # # # # # # # # # # # # ",
"! # ! ! # ! ! # ! # ! ! # ! ! # ! ! # ! # # $ % & # # ! ! # ! ! # ! ! # ! ! # # ! ! # ! ! # ! ! ",
"! ! ! ! ! ! ! ! ! ! ! ! ! ! ! ! ! ! ! ! ! # ' ( ) * ! ! ! ! ! ! ! ! ! ! ! ! ! ! ! ! ! ! ! ! ! ! ",
"# # # # # # # # # # # # # # # # # # # # # # + # , - # # # # # # # # # # # # # # # # # # # # # # ",
"! # ! ! # ! ! # ! # ! ! # ! ! # ! ! # ! # # . # 0 1 # # # # # # # # # # # ! # # ! ! # ! ! # ! ! ",
"# # # # # # # # # # # 2 3 4 5 + 6 7 8 9 : ; < 3 = > ? @ A : B C 9 D E F G # # # # # # # # # # # ",
"! ! ! ! ! ! ! ! ! ! ! H I J K . L M N O P Q # # 1 H P R F S % T U V W # X # ! ! ! ! ! ! ! ! ! ! ",
"! # ! ! # ! ! # ! ! ! Y Z [ ] X ^ _ ` a , a ] b c d e f g c h P 7 i h j O ! ! # ! ! # ! ! # ! ! ",
"# # # # # # # # # # # # # # # k l m # # # n o p q r # # s 6 O X # # # # # # # # # # # # # # # # ",
"! ! ! ! ! ! ! ! ! ! ! ! ! ! ! L a , t g u v w x y z e , B { | # ! ! ! ! ! ! ! ! ! ! ! ! ! ! ! ! ",
"! # ! ! # ! ! # ! ! ! ! ! ! ! ! # 1 } ~ (  !!!#!$!%!&!Y + N # ! ! # ! ! # ! ! # ! ! # ! ! # ! ! ",
"# # # # # # # # # # # # # # # # # # # U B '!(!)!' g *!T # # # # # # # # # # # # # # # # # # # # ",
"! ! ! ! ! ! ! ! ! ! ! ! ! ! ! ! ! ! ! # +!t ,!-!.!V 0!! ! ! ! ! ! ! ! ! ! ! ! ! ! ! ! ! ! ! ! ! ",
"! # ! ! # ! ! # ! ! ! ! ! ! ! ! ! ! ! ! # k & 1!2!3!g # ! ! # ! ! # ! ! # ! ! # ! ! # ! ! # ! ! ",
"# # # # # # # # # # # # # # # # # # # # # 4!5!6!+!7!z # # # # # # # # # # # # # # # # # # # # # ",
"! ! ! ! ! ! ! ! ! ! ! ! ! ! ! ! ! ! ! ! ! 8!9!! 1 :!u ! ! ! ! ! ! ! ! ! ! ! ! ! ! ! ! ! ! ! ! ! ",
"# # ! ! # ! ! # ! # ! # # ! # # ! # # ! ! ;!N <!4!=!# # ! ! # ! ! # ! ! # ! ! ! ! # ! ! # ! ! # ",
"# # # # # # # # # # # # # # # # # # # # # H # >!t '!# # # # # # # # # # # # # # # # # # # # # # ",
"! ! ! ! ! ! ! ! ! ! ! ! ! ! ! ! ! ! ! ! r ?!2 0 a @!L ! ! ! ! ! ! ! ! ! ! ! ! ! ! ! ! ! ! ! ! ! ",
"# # ! ! # ! ! # ! # ! # # ! # # ! # # ! A!B!k C!D!E!H # ! ! # ! ! # ! ! # ! ! ! ! # ! ! # ! ! # ",
"# # # # # # # # # # # # # # # # # # # # # F!G!D .!5 H!# # # # # # # # # # # # # # # # # # # # # ",
"! ! ! ! ! ! ! ! ! ! ! ! ! ! ! ! ! ! ! ! # -!I!B!J!K!L!! ! ! ! ! ! ! ! ! ! ! ! ! ! ! ! ! ! ! ! ! ",
"# # ! ! # ! ! # ! # ! # # ! # # ! # # ! ! } M!N!G O!# # ! ! # ! ! # ! ! # ! ! ! ! # ! ! # ! ! # ",
"# # # # # # # # # # # # # # # # # # # # # P!>!x , Q!# # # # # # # # # # # # # # # # # # # # # # ",
"! ! ! ! ! ! ! ! ! ! ! ! ! ! ! ! ! ! ! ! ! I { R!X D!# ! ! ! ! ! ! ! ! ! ! ! ! ! ! ! ! ! ! ! ! ! ",
"# # ! ! # ! ! # ! # ! # # ! # # ! # # ! ! L S!T!U!D!! # ! ! # ! ! # ! ! # ! ! ! ! # ! ! # ! ! # ",
"# # # # # # # # # # # # # # # # # # # # # V!W!y 8!9 # # # # # # # # # # # # # # # # # # # # # # ",
"! ! ! ! ! ! ! ! ! ! ! ! ! ! ! ! ! ! ! ! ! % & X!c 0!! ! ! ! ! ! ! ! ! ! ! ! ! ! ! ! ! ! ! ! ! ! ",
"# # ! ! # ! ! # ! # ! # # ! # # ! # # ! ! 6!Y!Z![!]!! # ! ! # ! ! # ! ! # ! ! ! ! # ! ! # ! ! # ",
"# # # # # # # # # # # # # # # # # # # # # # ^!_!`!a!# # # # # # # # # # # # # # # # # # # # # # ",
"! ! ! ! ! ! ! ! ! ! ! ! ! ! ! ! ! ! ! ! ! ! b!c!O!k ! ! ! ! ! ! ! ! ! ! ! ! ! ! ! ! ! ! ! ! ! ! ",
"# # ! ! # ! ! # ! # ! # # ! # # ! # # ! ! # d!I!3!4!! # ! ! # ! ! # ! ! # ! ! ! ! # ! ! # ! ! # ",
"# # # # # # # # # # # # # # # # # # # # # e!a!h 7!D # # # # # # # # # # # # # # # # # # # # # # ",
"! ! ! ! ! ! ! ! ! ! ! ! ! ! ! ! ! ! ! ! ! Y 9 U X { <!! ! ! ! ! ! ! ! ! ! ! ! ! ! ! ! ! ! ! ! ! ",
"# # ! ! # ! ! # ! # ! # # ! # # ! # # ! ! 2 f!g!4 J h!# ! ! # ! ! # ! ! # ! ! ! ! # ! ! # ! ! # ",
"# # # # # # # # # # # # # # # # # # # # # u i!o (!S!# # # # # # # # # # # # # # # # # # # # # # ",
"! ! ! ! ! ! ! ! ! ! ! ! ! ! ! ! ! ! ! ! ! ! a!j!k!9 ! ! ! ! ! ! ! ! ! ! ! ! ! ! ! ! ! ! ! ! ! ! ",
"! # ! ! # ! ! # ! # ! # # ! # # ! # # ! # ! R # u . # ! ! # ! ! # ! ! # ! ! # # ! # # ! # # ! # ",
"# # # # # # # # # # # # # # # # # # # # # # F >!L 6 # # # # # # # # # # # # # # # # # # # # # # ",
"! ! ! ! ! ! ! ! ! ! ! ! ! ! ! ! ! ! ! ! ! ! $ j S l!! ! ! ! ! ! ! ! ! ! ! ! ! ! ! ! ! ! ! ! ! ! ",
"! # ! ! # ! ! # ! # ! # # ! # # ! # # ! # ! ! # ! ! # ! ! # ! ! # ! ! # ! ! # # ! # # ! # # ! # ",
"# # # # # # # # # # # # # # # # # # # # # # # # # # # # # # # # # # # # # # # # # # # # # # # # ",
"! ! ! ! ! ! ! ! ! ! ! ! ! ! ! ! ! ! ! ! ! ! ! ! ! ! ! ! ! ! ! ! ! ! ! ! ! ! ! ! ! ! ! ! ! ! ! ! ",
"! # ! ! # ! ! # ! # ! # # ! # # ! # # ! # ! ! # ! ! # ! ! # ! ! # ! ! # ! ! # # ! # # ! # # ! # "};