/* XPM */ 
static const unsigned char * bitcoin24_xpm[] = {
"24 24 68 1",
" 	c None",
"!	c #FEFEFE",
"#	c white",
"$	c #F1F1F1",
"%	c #F5F5F5",
"&	c #C1C1C1",
"'	c #CDCDCE",
"(	c #F2F2F2",
")	c #CCCCCC",
"*	c #CBCBCB",
"+	c #C6C6C6",
",	c #C5C5C5",
"-	c #BFBFBF",
".	c #BEBEBE",
"0	c #C4C4C4",
"1	c #E8E8E8",
"2	c #E5E5E5",
"3	c #AEAEAE",
"4	c #A1A1A1",
"5	c #D0D0D0",
"6	c #C0C0C0",
"7	c #B4B4B4",
"8	c #D6D6D6",
"9	c #C6C6C5",
":	c #C8C8C8",
";	c #9C9C9C",
"<	c #E0E0E0",
"=	c #E9E9E9",
">	c #434343",
"?	c #8C8C8C",
"@	c #E4E4E4",
"A	c #A4A4A4",
"B	c #D4D4D4",
"C	c #FAFAFA",
"D	c #DDDDDD",
"E	c #8E8E8E",
"F	c #2D2D2D",
"G	c #868686",
"H	c #9E9E9E",
"I	c #E6E6E6",
"J	c #A0A0A0",
"K	c #ADADAD",
"L	c #DFDFDF",
"M	c #F9F9F9",
"N	c #F8F8F8",
"O	c #B5B5B5",
"P	c #CDCDCD",
"Q	c #A3A3A3",
"R	c #888888",
"S	c #A9A9A9",
"T	c #FBFBFB",
"U	c #606060",
"V	c #BCBCBB",
"W	c #F3F3F3",
"X	c #6C6C6C",
"Y	c #B6B6B6",
"Z	c #7A7A7A",
"[	c #858585",
"]	c #B2B2B2",
"^	c #AFAFAF",
"_	c #959595",
"`	c #FDFDFD",
"a	c #4D4D4D",
"b	c #5E5E5E",
"c	c #F7F7F7",
"d	c #A2A2A2",
"e	c #939393",
"f	c #D2D2D2",
"!!!!!!!!!!#!!#!!#!!!!!!!",
"########################",
"!#!!#!!#!!!$%#!!#!!###!#",
"!!!!!!!!!!!&'#!!#!!!!!!!",
"#####()**+,-.+.+,01#####",
"!#!!#234556789:);6<###!#",
"!!!!!!!(0=7>?@AB!!!!!!!!",
"########CDEFGH=#########",
"!#!!#!!#!!IJKL!!#!!###!#",
"!!!!!!!!!!12&M!!#!!!!!!!",
"##########DNO!##########",
"!#!!#!##!!5O?(!!#!!###!#",
"!!!!!!!!!!PQR1!!#!!!!!!!",
"##########DSQ!##########",
"!#!!#!##!!TUV!!!#!!###!#",
"!!!!!!!!!!WXY#!!#!!!!!!!",
"##########!ZY###########",
"!#!!#!##!!#[]#!!#!!###!#",
"!!!!!!!!!!=^_`!!#!!!!!!!",
"!!!!!!!!!!$abc!!!!!!!!!!",
"!#!!#!!#!!#de#!!#!!###!#",
"###########fB###########",
"!!!!!!!!!!!!!!!!!!!!!!!!",
"!#!!#!!#!!#!!#!!#!!###!#"};